HIERARCHY
ROOT Hips
{
	OFFSET 0.000000 0.000000 0.000000 
	CHANNELS 6 Xposition Yposition Zposition Zrotation Yrotation Xrotation
	JOINT LeftUpLeg
	{
		OFFSET 1.363060 -1.794630 0.839290 
		CHANNELS 3 Zrotation Yrotation Xrotation
		JOINT LeftLeg
		{
			OFFSET 2.448110 -6.726130 0.000000 
			CHANNELS 3 Zrotation Yrotation Xrotation
			JOINT LeftFoot
			{
				OFFSET 2.562200 -7.039590 0.000000 
				CHANNELS 3 Zrotation Yrotation Xrotation
				JOINT LeftToeBase
				{
					OFFSET 0.157640 -0.433110 2.322550 
					CHANNELS 3 Zrotation Yrotation Xrotation
					End Site
					{
						OFFSET 0.000000 0.000000 0.000000 
					}
				}
			}
		}
	}
	JOINT RightUpLeg
	{
		OFFSET -1.305520 -1.794630 0.839290 
		CHANNELS 3 Zrotation Yrotation Xrotation
		JOINT RightLeg
		{
			OFFSET -2.542530 -6.985550 0.000000 
			CHANNELS 3 Zrotation Yrotation Xrotation
			JOINT RightFoot
			{
				OFFSET -2.568260 -7.056230 0.000000 
				CHANNELS 3 Zrotation Yrotation Xrotation
				JOINT RightToeBase
				{
					OFFSET -0.164730 -0.452590 2.363150 
					CHANNELS 3 Zrotation Yrotation Xrotation
					End Site
					{
						OFFSET 0.000000 0.000000 0.000000 
					}
				}
			}
		}
	}
	JOINT Spine
	{
		OFFSET 0.028270 2.035590 -0.193380 
		CHANNELS 3 Zrotation Yrotation Xrotation
		JOINT Spine1
		{
			OFFSET 0.056720 2.048850 -0.042750 
			CHANNELS 3 Zrotation Yrotation Xrotation
			JOINT Neck1
			{
				OFFSET -0.054170 1.746240 0.172020 
				CHANNELS 3 Zrotation Yrotation Xrotation
				JOINT Head
				{
					OFFSET 0.104070 1.761360 -0.123970 
					CHANNELS 3 Zrotation Yrotation Xrotation
					End Site
					{
						OFFSET 0.000000 0.000000 0.000000 
					}
				}
			}
			JOINT LeftArm
			{
				OFFSET 3.362410 1.200890 -0.311210 
				CHANNELS 3 Zrotation Yrotation Xrotation
				JOINT LeftForeArm
				{
					OFFSET 4.983000 -0.000000 -0.000000 
					CHANNELS 3 Zrotation Yrotation Xrotation
					JOINT LeftHand
					{
						OFFSET 3.483560 -0.000000 -0.000000 
						CHANNELS 3 Zrotation Yrotation Xrotation
						JOINT LeftHandIndex1
						{
							OFFSET 0.715260 -0.000000 -0.000000 
							CHANNELS 3 Zrotation Yrotation Xrotation
							End Site
							{
								OFFSET 0.000000 0.000000 0.000000 
							}
						}
					}
				}
			}
			JOINT RightArm
			{
				OFFSET -3.136600 1.374050 -0.404650 
				CHANNELS 3 Zrotation Yrotation Xrotation
				JOINT RightForeArm
				{
					OFFSET -5.241900 -0.000000 -0.000000 
					CHANNELS 3 Zrotation Yrotation Xrotation
					JOINT RightHand
					{
						OFFSET -3.444170 -0.000000 -0.000000 
						CHANNELS 3 Zrotation Yrotation Xrotation
						JOINT RightHandIndex1
						{
							OFFSET -0.622530 -0.000000 -0.000000 
							CHANNELS 3 Zrotation Yrotation Xrotation
							End Site
							{
								OFFSET 0.000000 0.000000 0.000000 
							}
						}
					}
				}
			}
		}
	}
}
MOTION
Frames: 6
Frame Time: 0.041667
15.050571 17.657572 -34.830560 12.554744 -7.704090 9.940670 -28.531032 -2.350359 6.807094 1.083822 7.859945 25.184844 4.835793 -0.151445 46.533031 0.027900 -1.078000 -2.963600 7.280045 17.292661 -49.730263 -7.328613 -17.287830 51.560209 0.597068 -5.410837 4.728496 -0.217900 3.005200 -8.293300 0.320982 -2.247043 -1.335532 3.216312 -1.040596 -2.205366 1.607813 1.271376 4.875715 2.571700 0.265800 6.614100 -85.636162 7.179280 38.874147 124.241361 -59.316294 -91.294537 -0.230489 -0.985536 -29.803807 -7.125000 0.000000 0.000000 79.038512 -34.179366 34.157287 -84.662726 60.369565 -62.555071 2.531671 -0.799359 -11.448668 7.125000 0.000000 0.000000 
14.960071 17.699325 -34.201177 12.643646 -7.711030 9.747376 -28.649898 -3.248437 6.946561 1.315077 8.413194 27.474607 5.232932 -4.540694 47.682040 0.000100 0.075500 0.207400 7.473169 17.245607 -48.519746 -6.012340 -16.220795 47.002849 0.513530 -5.306861 5.881016 -0.217200 3.000000 -8.278600 0.242862 -2.128736 -1.565298 2.899850 -0.914463 -3.192333 1.342681 0.913093 4.247567 2.264800 0.131800 5.923500 -84.656979 9.117594 39.667222 122.786186 -59.806729 -90.282834 -0.153861 -1.029271 -28.995659 -7.125000 0.000000 0.000000 79.940467 -35.275516 33.293380 -84.958384 60.386926 -62.849788 2.501294 -0.760082 -10.934006 7.125000 0.000000 0.000000 
14.867104 17.727400 -33.579405 12.980831 -7.455159 9.547381 -29.017059 -4.101263 6.677258 2.052230 9.440729 30.664666 5.012851 -3.376828 46.868387 0.161800 2.591500 7.143400 7.552498 16.845926 -47.533087 -5.027113 -15.302210 43.407372 0.405741 -5.103398 6.965595 -0.373100 3.923200 -10.860800 0.237473 -2.241958 -1.540871 3.005204 -0.972916 -3.131792 1.393450 0.982992 4.251967 2.281000 0.171300 5.974300 -84.293298 9.619492 39.897995 120.412781 -60.542459 -88.674176 -0.111262 -0.963831 -28.636825 -7.125000 0.000000 0.000000 80.179020 -34.693695 32.864749 -84.785251 60.340418 -62.763920 2.510721 -0.605824 -10.600745 7.125000 0.000000 0.000000 
14.773005 17.737787 -32.961849 13.297799 -7.290713 9.191128 -29.359109 -4.426370 6.214633 2.882015 10.429694 34.019279 3.818191 -1.022132 41.404453 0.048200 -1.417000 -3.897000 7.855009 16.348940 -46.126444 -4.146172 -14.343685 39.964139 0.327156 -5.176571 8.540548 -0.612800 5.010400 -13.938300 0.233638 -2.335107 -1.481959 3.137521 -1.024266 -3.033266 1.484163 1.087568 4.561604 2.332100 0.212800 6.160100 -84.079519 10.549274 39.907278 118.835047 -61.029621 -87.538405 -0.191149 -1.061576 -28.573501 -7.125000 0.000000 0.000000 80.254632 -33.885992 32.757830 -84.299100 60.240454 -62.370115 2.541560 -0.487983 -10.300958 7.125000 0.000000 0.000000 
14.678289 17.733879 -32.357251 13.575911 -6.741507 8.729964 -29.378699 -4.594172 5.462116 3.873587 11.505780 37.751561 3.230444 0.706885 38.939470 0.049200 -1.432100 -3.938600 8.310157 15.472657 -44.660210 -3.492191 -13.537234 37.276344 0.216343 -5.061682 9.875034 -0.757400 5.558200 -15.507900 0.250782 -2.553843 -1.432343 3.298709 -1.128376 -3.160205 1.418336 0.824165 4.226347 2.296800 0.091600 6.053700 -84.041717 11.356711 39.694247 116.315731 -61.690667 -85.825503 -0.196404 -1.051979 -28.532173 -7.125000 0.000000 0.000000 80.361493 -32.922184 32.586875 -83.246700 60.042280 -61.481021 2.555125 -0.491158 -9.891407 7.125000 0.000000 0.000000 
14.576888 17.729663 -31.755533 13.749252 -5.984119 8.219302 -29.206345 -4.863939 4.409083 4.936078 12.564283 41.732447 2.734432 1.701286 36.632072 0.485500 -4.467800 -12.396700 9.036230 14.363820 -43.195264 -3.051131 -12.927394 35.428094 0.030528 -4.532436 11.044294 -0.565600 4.816600 -13.386300 0.298450 -2.901675 -1.446269 3.536094 -1.278351 -3.559095 1.575351 0.806349 3.524026 2.390400 0.128300 5.600400 -84.139613 12.270478 39.264106 113.225387 -62.388751 -83.701366 -0.176206 -1.160313 -28.604981 -7.125000 0.000000 0.000000 80.240707 -32.246428 32.734475 -82.211831 59.840812 -60.604795 2.560390 -0.492986 -9.739514 7.125000 0.000000 0.000000 
